<svg xmlns="http://www.w3.org/2000/svg" width="800" height="323">
    <path d="M35.469 135.57c18.79 0 28.185-11.062 28.185-33.193 0-18.828-9.395-28.242-28.185-28.242H16.78v61.435h18.69zm-35.47 14.568v-90.57h35.47c29.979 0 44.965 14.27 44.965 42.809 0 31.843-14.986 47.76-44.965 47.76H-.001m122.877-12.665c10.764 0 16.147-6.948 16.147-20.838 0-13.553-5.383-20.336-16.147-20.336-10.77 0-16.153 6.783-16.153 20.336 0 13.89 5.383 20.838 16.153 20.838zm-32.94-20.59c0-22.29 10.98-33.44 32.94-33.44 21.953 0 32.933 11.15 32.933 33.44 0 22.257-10.98 33.383-32.933 33.383-21.877 0-32.85-11.126-32.94-33.384m78.539 33.257V83.63h12.983l2.092 8.489c5.826-5.655 11.988-8.489 18.492-8.489v13.554c-6.25 0-11.842 2.6-16.78 7.797v45.156h-16.787m85.189-49.148c-3.461-2.276-7.817-3.424-13.047-3.424-10.428 0-15.645 5.852-15.645 17.548 0 13.89 5.426 20.837 16.28 20.837 4.386 0 8.526-.615 12.412-1.838v-33.123zm16.78 45.155c-10.175 2.663-20.115 3.994-29.827 3.994-21.496 0-32.242-11.525-32.242-34.581 0-21.282 10.517-31.926 31.545-31.926 4.476 0 9.053 1.06 13.744 3.17V59.567h16.78v86.577m45.606-8.672c10.764 0 16.152-6.948 16.152-20.838 0-13.553-5.388-20.336-16.152-20.336-10.765 0-16.153 6.783-16.153 20.336 0 13.89 5.388 20.838 16.153 20.838zm-32.933-20.59c0-22.29 10.973-33.44 32.933-33.44s32.94 11.15 32.94 33.44c0 22.257-10.98 33.383-32.94 33.383-21.878 0-32.851-11.126-32.933-33.384m121.094-18.168c-2.745-1.02-6.65-1.528-11.708-1.528-11.614 0-17.421 6.403-17.421 19.196 0 12.368 5.002 18.555 15.005 18.555 4.818 0 9.522-1.141 14.124-3.417V98.713zm16.787 46.36c0 19.424-11.67 29.135-35.025 29.135-8.19 0-15.455-1.058-21.788-3.17v-13.306c6.46 2.118 13.769 3.17 21.915 3.17 12.076 0 18.111-5.065 18.111-15.202-4.982 2.118-10.34 3.17-16.083 3.17-19.76 0-29.643-10.79-29.643-32.363 0-21.915 11.506-32.876 34.518-32.876 7.728 0 17.06.907 27.995 2.726v58.716m15.836 5.065V83.63h12.983l2.092 9.757c6.377-6.504 13.636-9.757 21.788-9.757 15.747 0 23.62 8.197 23.62 24.578v41.929h-16.78v-41.929c0-7.347-3.651-11.024-10.96-11.024-5.446 0-10.765 2.18-15.963 6.53v46.423h-16.78m89.936-39.018h28.376v-.5c0-9.206-4.647-13.808-13.934-13.808-8.87 0-13.68 4.767-14.441 14.308zm14.442-27.488c20.184 0 30.277 10.302 30.277 30.911 0 2.745-.19 5.49-.571 8.235h-44.147c0 9.376 6.884 14.06 20.647 14.06 6.713 0 13.427-.633 20.14-1.901v13.3c-5.87 1.268-13.002 1.902-21.408 1.902-24.109 0-36.166-11.341-36.166-34.01 0-21.663 10.41-32.497 31.228-32.497" fill="#c0273f"/>
    <path d="M146.966 248.557v-61.315h28.831c13.154 0 19.728 5.763 19.728 17.281 0 12.495-8.995 20.052-26.98 22.683l-1.712-10.118c10.809-1.857 16.216-5.934 16.216-12.222 0-5.084-2.675-7.633-8.019-7.633h-16.127v51.324h-11.937m82.05-77.607h14.372l-10.77 11.107H222.53l6.485-11.107zm23.107 16.292v9.776H219.87v15.442h30.727v10.162h-30.86V238.7h33.021v9.858h-44.73v-61.315h44.096m16.279 61.231v-61.232h29.281c13.155 0 19.729 5.477 19.729 16.426 0 7.404-5.116 13.534-15.36 18.39l20.412 26.499h-15.05l-19.595-26.708v-5.192c11.411-1.857 17.117-6.073 17.117-12.647 0-4.514-2.67-6.777-8.013-6.777h-16.356v51.241h-12.165m64.307-61.232v61.316h11.938v-61.316H332.71zm81.416 58.488c-5.198 2.174-11.696 3.258-19.506 3.258-22.733 0-34.1-10.644-34.1-31.944 0-20.153 11.563-30.226 34.683-30.226 7.062 0 13.364.995 18.923 2.998v10.289c-5.56-2.282-11.563-3.43-18.023-3.43-15.461 0-23.195 6.796-23.195 20.369 0 14.726 7.296 22.086 21.896 22.086 2.161 0 4.621-.342 7.385-1.033v-17.833h11.937v25.465m45.967-6.599c12.97 0 19.462-7.132 19.462-21.395 0-14.042-6.492-21.06-19.462-21.06-13.306 0-19.956 7.018-19.956 21.06 0 14.263 6.65 21.395 19.956 21.395zm-32.344-21.142c0-20.78 10.784-31.17 32.344-31.17 21.23 0 31.849 10.39 31.849 31.17 0 20.667-10.618 31-31.849 31-20.603 0-31.38-10.333-32.344-31m80.067 30.486v-61.232h29.281c13.155 0 19.729 5.477 19.729 16.426 0 7.404-5.116 13.534-15.36 18.39l20.406 26.499h-15.044l-19.595-26.708v-5.192c11.411-1.857 17.117-6.073 17.117-12.647 0-4.514-2.67-6.777-8.02-6.777h-16.349v51.241h-12.165m89.531-9.775c13.357 0 20.045-7.487 20.045-22.473 0-12.742-6.688-19.12-20.045-19.12h-13.294V238.7h13.294zm-25.23 9.858v-61.315h25.23c21.32 0 31.982 9.661 31.982 28.984 0 21.554-10.663 32.33-31.982 32.33h-25.23" fill="#5a5758"/>
    <path d="M422.266 323H1.256v-54.03h409.358L422.266 323m12.748 0h-7.607l-11.347-54.03h7.315l11.64 54.03" fill="#89a320"/>
    <path d="M28.077 282.048v23.069h12.317v4.418h-18.06v-27.487h5.743m38.975 0v4.38H51.526v6.923h14.79v4.551h-14.86v7.215h15.9v4.418H45.82v-27.487h21.23m27.52 23.069c6.435 0 9.65-3.36 9.65-10.08 0-5.712-3.215-8.57-9.65-8.57h-6.396v18.65h6.397zm-12.14 4.418v-27.487h12.14c10.264 0 15.4 4.33 15.4 12.989 0 9.661-5.136 14.498-15.4 14.498H82.43m42.525-34.797h6.923l-5.186 4.983h-4.856l3.12-4.983zm11.126 7.31v4.38h-15.525v6.923h14.79v4.551h-14.86v7.215h15.9v4.418H114.85v-27.487h21.231m5.617 27.487v-27.487h13.883c6.327 0 9.496 2.58 9.496 7.74 0 5.604-4.33 8.996-12.995 10.175l-.818-4.54c5.204-.83 7.804-2.662 7.804-5.476 0-2.283-1.287-3.424-3.861-3.424h-7.766v23.012h-5.743m27.107 0h-5.902l13.167-27.487h6.18l13.447 27.487h-6.181l-3.531-7.5h-10.308l1.978-4.418h6.244l-4.881-10.327-10.213 22.245m30.689-.038v-27.45h14.092c6.34 0 9.503 2.454 9.503 7.36 0 3.322-2.466 6.067-7.398 8.248l9.826 11.88h-7.246l-9.427-11.975v-2.326c5.49-.837 8.235-2.726 8.235-5.674 0-2.022-1.287-3.037-3.854-3.037h-7.874v22.974h-5.857m49.016-27.449v4.418h-8.894v23.07h-5.75v-23.07h-8.894v-4.418h23.538m24.483 0v4.38H257.46v6.923h14.796v4.551h-14.86v7.215h15.9v4.418h-21.541v-27.487h21.237m5.618 27.487v-27.487h5.958l10.524 20.856 10.301-20.856h5.744v27.487h-5.313v-19.151l-8.412 19.151h-4.9l-8.59-19.151v19.151h-5.313m60.269-27.487v4.38h-15.532v6.923h14.79v4.551h-14.853v7.215h15.899v4.418h-21.535v-27.487h21.23m5.617 27.487v-27.487h5.75l16.369 20.032v-20.032h5.534v27.487h-5.75l-16.375-20.457v20.457h-5.528m54.436-27.487v4.418h-8.893v23.07h-5.75v-23.07h-8.888v-4.418h23.532" fill="#fff"/>
    <path d="M448.967 290.91c-.989-.634-2.237-.95-3.746-.95-3.005 0-4.507 1.628-4.507 4.874 0 3.86 1.565 5.8 4.69 5.8 1.262 0 2.454-.17 3.563-.513v-9.21zm4.837 12.558c-2.928.742-5.794 1.11-8.583 1.11-6.187 0-9.275-3.208-9.275-9.617 0-5.915 3.024-8.875 9.072-8.875 1.287 0 2.605.285 3.95.881v-7.582h4.836v24.083m13.116-2.415c3.1 0 4.647-1.933 4.647-5.794 0-3.772-1.547-5.655-4.646-5.655-3.1 0-4.647 1.883-4.647 5.655 0 3.86 1.547 5.794 4.647 5.794zm-9.477-5.724c0-6.2 3.163-9.3 9.478-9.3 6.32 0 9.477 3.1 9.477 9.3 0 6.187-3.157 9.28-9.477 9.28-6.295 0-9.453-3.093-9.478-9.28m22.6 9.249v-18.492h3.734l.602 2.358c1.674-1.578 3.455-2.358 5.319-2.358v3.765c-1.794 0-3.404.717-4.824 2.168v12.559h-4.831m24.508-13.668c-.995-.634-2.25-.95-3.753-.95-3.005 0-4.5 1.628-4.5 4.874 0 3.86 1.559 5.8 4.678 5.8 1.268 0 2.453-.17 3.575-.513v-9.21zm4.824 12.558c-2.922.742-5.781 1.11-8.577 1.11-6.187 0-9.274-3.208-9.274-9.617 0-5.915 3.024-8.875 9.078-8.875 1.28 0 2.605.285 3.95.881v-7.582h4.823v24.083m13.123-2.415c3.1 0 4.647-1.933 4.647-5.794 0-3.772-1.547-5.655-4.647-5.655-3.094 0-4.647 1.883-4.647 5.655 0 3.86 1.553 5.794 4.647 5.794zm-9.478-5.724c0-6.2 3.157-9.3 9.478-9.3 6.314 0 9.47 3.1 9.47 9.3 0 6.187-3.156 9.28-9.47 9.28-6.289 0-9.452-3.093-9.478-9.28m34.842-5.053c-.786-.285-1.915-.425-3.367-.425-3.34 0-5.014 1.775-5.014 5.338 0 3.436 1.445 5.16 4.317 5.16 1.388 0 2.745-.317 4.064-.95v-9.123zm4.83 12.888c0 5.401-3.36 8.108-10.08 8.108-2.351 0-4.443-.298-6.263-.881v-3.702c1.858.59 3.956.881 6.308.881 3.468 0 5.205-1.407 5.205-4.222-1.433.583-2.973.875-4.628.875-5.686 0-8.527-2.999-8.527-9.002 0-6.092 3.31-9.135 9.928-9.135 2.225 0 4.913.247 8.057.754v16.324m4.558 1.414v-18.492h3.734l.602 2.707c1.833-1.807 3.918-2.707 6.27-2.707 4.526 0 6.79 2.276 6.79 6.827v11.665h-4.825v-11.665c0-2.04-1.052-3.062-3.157-3.062-1.56 0-3.093.603-4.59 1.813v12.914h-4.824m25.878-10.853h8.158v-.14c0-2.56-1.337-3.841-4.006-3.841-2.555 0-3.937 1.33-4.152 3.98zm4.152-7.64c5.807 0 8.704 2.86 8.704 8.59 0 .768-.053 1.528-.159 2.29h-12.697c0 2.611 1.978 3.91 5.933 3.91 1.934 0 3.867-.177 5.8-.526v3.703c-1.692.348-3.746.526-6.161.526-6.935 0-10.403-3.157-10.403-9.459 0-6.022 2.992-9.033 8.983-9.033m11.88 14.174v4.317h4.829v-4.316h-4.83zm8.926 4.318v-18.492c0-5.078 2.872-7.614 8.602-7.614 1.572 0 2.993.235 4.267.71v3.696c-1.198-.469-2.51-.71-3.918-.71-2.745 0-4.12 1.306-4.12 3.918h5.743v3.696h-5.744v14.796h-4.83m12.234 0v-18.492h3.728l.609 2.358c1.674-1.578 3.442-2.358 5.319-2.358v3.765c-1.794 0-3.41.717-4.83 2.168v12.559h-4.825" fill="#231f20"/>
    <path d="M589.137 97.534S778.66 112.026 791.034 274.11c.723 9.515 1.059 19.278-.317 32.654-.216 2.11 1.407 5.205 1.122 7.347 0 0 10.967-8.539 7.474-53.232-2.574-32.939-7.31-89.765-42.131-149.59 0 0 40.242-46.956 22.904-110.654 0 0-28.49 108.391-74.317 103.922 0 0-121.228-17.662-116.632-7.024" fill="#c0273f"/>
    <path d="M725.421 226.07s32.414-37.991-6.7-27.379c0 0-53.904 29.548-90.66 116.182 0 0 54.988-52.725 97.36-88.802" fill="#c0273f"/>
    <path d="M721.028 77.514c-3.233 8.336-15.31 11.474-26.974 6.96-11.658-4.507-18.486-14.91-15.259-23.278 3.227-8.336 15.278-11.442 26.936-6.929 11.69 4.463 18.524 14.885 15.297 23.247" fill="#5a5758"/>
    <path d="M613.753 133.136c32.077 6.865 69.759 14.751 100.099 32.704 40.407 20.426 56.332 59.774 58.208 100.049 1.617-13.573-.735-26.093-3.112-38.284-17.979-71.318-93.595-88.998-155.131-104.232l-.064 9.763" fill="#89a320"/>
    <path d="M606.216 131.544c61.416 12.254 139.878 27.298 160.779 98.438 2.365 11.45 5.426 22.733 4.881 35-1.794-41.022-28.197-82.45-67.09-98.032-30.327-13.3-63.495-20.825-98.545-25.808l-.026-9.598" fill="#c0273f"/>
</svg>
