<svg xmlns="http://www.w3.org/2000/svg" width="480" height="195">
    <style>
        .st0{fill:#c3002f}
    </style>
    <switch>
        <g>
            <path class="st0" d="M65.714 116.61c1.01-.967 1.283-3.075 2.042-5.42 1.14-3.54 4.339-8.643-1.692-5.385-4.799 2.304-7.906 2.706-7.456 4.35 1.194 4.364 6.58 6.954 7.106 6.454zm-1.654-13.053c3.748-1.618 18.19-8.325 5.85-6.893-4.767.553-3.658.503-5.92 3.778-.613.9-3.359 4.586.07 3.115 1.86-.807-.55.225 0 0z"/>
            <path class="st0" d="M130.173 75.473c-9.381-1.302-17.892 2.204-22.426-9.448-2.36-6.07-4.619-8.224-5.82-9.646-3.064-3.657-6.503-5.82-10.558-5.205-6.152.936-12.007.59-17.59-3.21-1.82-1.24-4.718.62-5.713 1.297-1.095.744-2.437 2.123-3.012 2.875a.275.275 0 0 0 .026.015c.015.007.019.018.022.025.524-.265 1.15-.324 1.884-.324a3.14 3.14 0 0 0-.059 1.335c.044.175.059.365.144.516-.719 1.032-1.294 2.163-1.5 3.487-.94 6.524-5.275 11.596-2.352 17.144 1.847 3.516-10.056 18.972-13.93 24.276-3.063 4.188-6.948 6.628-2.186 11.541 2.724 2.817-8.968 18.117-10.571 20.698-3.218 5.193-10.985 17.483-8.165 23.967.733 1.706 20.144 11.268 20.244 11.135 1.802-2.654-.542-5.134-3.705-11.135-2.488-4.722-1.581-6.76-3.76-7.726-1.876-.822-5.864 5.083-7.759 3.789-3.317-2.3 11.925-27.073 14.17-30.845 1.544-2.647 3.937-6.079 4.858-9.101.848-2.824-3.436-2.297-2.485-4.582 4.048-9.838 12.061-18.935 16.514-26.64 3.35-5.801-1.84-12.779 1.574-11.51 4.755 1.761 9.52.493 9.354-3.672-.188-4.958-3.6-6.587-5.539-10.688-.284-.621.328-.971 1.464-1.145 3.242 2.002 6.806 2.95 11.146 2.95 2.466 0 4.888-.303 6.974-.627 11.236 5.282 10.543 19.62 20.764 24.179 9.47 4.204 36.264.606 24.328 24.477-4.117 8.22-13.616 16.466-23.377 11.42-8.5-4.38-18.969 15.72-23.27 20.782-6.429 7.59-16.64-2.06-24.531 3.192-6.915 4.585 1.301 12.171 4.578 15.334 5.896 5.702 5.015 14.003 9.416 19.604 1.585 2.007 7.105-7.162 5.078-10.481-1.095-1.791-2.934-3.332-4.304-4.899-1.644-1.883-11.856-12.971-5.914-14.722 4.584-1.33 10.922 1.548 15.058 3.056 3.317 1.213 8.024-10.222 9.506-12.234 2.009-2.735 11.176-15.021 13.683-10.841 4.85 8.04 21.645 10.284 12.647 6.111-4.217-1.946-7.752-5.706-3.58-7.479 8.033-3.439 14.84-9.023 18.822-13.693 10.317-12.073 6.797-31.041-10.148-33.352zM206.516 61.8c-7.623-4.04-16.805-3.89-25.077-4.93-12.344-1.553-21.98.025-31.575 7.522-2.669 2.083-4.423 5.386-3.255 7.443.988 1.71 4.81 6.483 7.502 4.192 5.16-4.399 10.464-8.756 17.744-9.464 1.773-.173 7.004.222 8.843.42 11.302 1.22 18.685 3.524 27.974 6.61 5.105 1.695 1.423-9.896-2.156-11.792zm-.413 27.798c-6.949-7.103-16.156-11.352-26.046-12.09-3.848-.285-7.767.099-11.335 1.319-5.29 1.806-10.18 5.78-14.317 9.307-5.997 5.12.081 11.283 5.633 5.883 3.365-3.247 7.199-5.448 10.929-7.213 3.778-1.803 9.687-2.547 13.307-1.85 9.687 1.883 16.967 7.475 23.823 13.892.324.3.656.649.973.973 2.953.057.011-7.188-2.967-10.221zM131.345 21.6c-.28-.1-10.192 3.181-10.192 3.181-10.277 1.672-18.78.166-28.87-.051-5.355-.12-9.738.76-13.448 4.775-3.638 3.928.807 14.013 4.912 11.86 4.135-2.167 11.08-7.652 17.055-6.72 5.975.918 12.4 4.542 18.637 4.28 1.124-.044 2.37-.299 3.524-.553 6.2-1.353 12.912-15.209 8.382-16.771zm32.736 14.715c-16.429 2.96-33.138 4.479-47.47 13.954-2.55 1.679-4.264 3.695-2.837 6.61 1.183 2.4 4.707 6.216 7.147 4.564 8.382-5.665 15.972-11.94 26.414-12.212 5.706-.15 11.188 2.407 17.082 1.05 5.68-1.3 11.213-2.362 16.042-5.862.674-.822.663-1.974.512-2.788-.925-4.907-11.81-6.23-16.89-5.316zm37.716 77.67c-7.836-6.779-18.832-15.404-29.223-14.262-9.812 1.077-17.94 6.62-25.655 13.407-4.575 4.029-3.078 17.494 4.526 11.747 6.794-5.142 14.063-10.826 23.028-11.036 4.19-.1 8.968 1.394 11.006 1.947 4.018 1.094 11.198 3.903 15.308 6.159 1.346.468 7.074-2.724 1.01-7.962z"/>
            <path d="M297.136 40.812h4.505c1.688 0 2.701.321 3.45.992.752.674 1.5 1.865 1.292 3.553-.12.973-.664 2.496-1.843 3.513-.975.83-1.832 1.032-2.59 1.21l3.327 5.418h-3.295l-3.202-5.618h-.037l-.69 5.618h-2.717l1.8-14.686zm1.86 7.022h1.743c2.242 0 2.804-1.485 2.9-2.257.099-.817-.227-2.225-2.35-2.225h-1.744l-.55 4.482zm11.084-7.022h7.896l-.314 2.54h-5.175l-.442 3.59h4.961l-.313 2.542h-4.96l-.426 3.472h5.18l-.314 2.542h-7.897l1.804-14.686zm1.943-2.897l4.788-2.64.814 2.083-4.817 2.385-.785-1.828zm14.394 10.1h9.576l-.039.317c-.514 4.185-4.581 7.46-8.69 7.46-4.204 0-7.493-3.232-6.953-7.639.532-4.324 4.607-7.636 8.752-7.636 3.686 0 6.06 2.496 6.552 4.603h-3.253c-.512-.975-1.725-2.066-3.673-2.066-3.308 0-5.382 2.816-5.663 5.12-.277 2.242 1.063 5.079 4.552 5.079 1.806 0 3.612-.992 4.674-2.698h-6.147l.312-2.54zm13.837-7.203h2.715l-1.8 14.686h-2.717l1.802-14.686zm13.986-.295c4.165 0 7.268 3.333 6.734 7.675-.516 4.208-4.386 7.6-8.613 7.6s-7.261-3.393-6.747-7.6c.536-4.342 4.455-7.675 8.625-7.675zm-1.567 12.736c2.798 0 5.252-2.361 5.586-5.08.343-2.816-1.576-5.12-4.335-5.12s-5.24 2.304-5.586 5.12c-.336 2.719 1.537 5.08 4.335 5.08zm11.895-12.485h3.04l4.686 10.502h.042l1.288-10.502h2.673l-1.77 14.438h-2.989l-4.74-10.498h-.04l-1.289 10.498h-2.674l1.773-14.438zm-137.72 16.13h7.634l11.746 26.336h.097l3.235-26.336h6.707l-4.45 36.22h-7.49l-11.89-26.328h-.097l-3.234 26.328h-6.707l4.449-36.22zm31.767 22.451c1.026-8.353 8.627-14.769 16.534-14.769 7.805 0 13.854 6.215 12.816 14.667-1.11 9.046-8.772 14.765-16.429 14.765-8.205 0-13.889-6.76-12.921-14.663zm22.72.051c.616-5.024-2.802-8.753-6.93-8.753-3.434 0-8.464 2.936-9.174 8.701-.64 5.22 2.874 8.6 7.05 8.6 4.82 0 8.517-4.174 9.055-8.548zm37.101-13.876l-3.387 27.594h-6.062l.343-2.785h-.101c-1.278 1.491-3.338 3.679-7.562 3.679-5.023 0-7.553-2.485-8.712-4.374-1.68-2.934-1.13-7.407-.85-9.694l1.77-14.42h6.614l-1.727 14.072c-.275 2.239-1.027 8.352 4.742 8.352 4.176 0 6.05-3.93 6.587-8.303l1.736-14.121h6.61zm3.428 0h7.155l4.412 18.297h.148l8.51-18.297h7.259l-14.571 27.594h-5.168l-7.745-27.594zm33.641 16.756c.078 1.79 2.19 5.668 6.91 5.668 2.934 0 5.275-1.244 6.801-3.533h6.961c-2.204 4.972-8.041 9.597-14.507 9.597-8.205 0-13.76-6.563-12.772-14.612.959-7.807 7.853-14.97 16.355-14.97 8.75 0 13.344 7.56 12.49 14.52-.16 1.294-.499 2.437-.807 3.33h-21.43zm15.72-5.32c-.205-4.421-3.384-6.46-6.668-6.46-2.435 0-6.726 1.34-8.598 6.46h15.266zm13.966-20.635h6.613l-4.515 36.793h-6.613l4.515-36.793zm12.429 0h6.614l-4.518 36.793h-6.61l4.515-36.793zm15.059 25.955c.084 1.79 2.19 5.668 6.915 5.668 2.932 0 5.273-1.244 6.8-3.533h6.96c-2.204 4.972-8.04 9.597-14.505 9.597-8.205 0-13.764-6.563-12.776-14.612.959-7.807 7.855-14.97 16.359-14.97 8.749 0 13.342 7.56 12.488 14.52-.162 1.294-.5 2.437-.807 3.33H412.68zm15.72-5.32c-.198-4.421-3.385-6.46-6.664-6.46-2.433 0-6.73 1.34-8.6 6.46H428.4zm11.259 1.105c.09-.737.773-1.34 1.516-1.34h10.433c.743 0 1.277.603 1.186 1.34l-.357 2.89c-.09.737-.773 1.34-1.516 1.34h-10.433a1.168 1.168 0 0 1-1.186-1.34l.357-2.89zm-47.797 28.115c-.267 2.197-2.261 3.971-4.452 3.971-2.192 0-3.751-1.774-3.484-3.971.271-2.188 2.263-3.963 4.457-3.963 2.19 0 3.75 1.775 3.48 3.963zm-149.786-2.277h5.106l10.103 38.221h-7.206l-2.558-9.86h-12.651l-4.984 9.86h-7.206l19.396-38.22zm-4.19 21.695h8.11l-2.569-11.726h-.096l-5.446 11.726zm53.036-12.138l-5.272 42.36H279.3l2.09-16.434c-3.553 3.665-7.756 3.665-8.519 3.665-8.02 0-12.427-7.64-11.456-15.54 1.006-8.216 8.003-15.034 15.259-15.034 5.394 0 7.156 3.152 7.882 4.6h.095l.444-3.618h5.825zm-16.511 23.294c4.486 0 8.17-4.339 8.734-8.932.55-4.497-1.895-9.041-6.574-9.041-4.534 0-8.25 4.181-8.827 8.887-.707 5.781 2.704 9.086 6.667 9.086zm45.191-23.294l-3.52 28.665h-5.82l.357-2.896h-.096c-1.238 1.55-3.24 3.822-7.295 3.822-4.82 0-7.224-2.58-8.319-4.543-1.585-3.044-1.012-7.693-.722-10.068l1.839-14.98h6.351l-1.797 14.618c-.286 2.326-1.065 8.676 4.473 8.676 4.009 0 5.846-4.083 6.407-8.624l1.798-14.67h6.344zm18.429 6.096h-3.102l.746-6.096h3.106l1.172-9.557h6.344l-1.172 9.557h3.817l-.75 6.096h-3.814l-2.772 22.569h-6.342l2.767-22.569zm37.178 22.569h-5.826l.437-3.567c-2.323 2.584-6.471 4.494-9.813 4.494-6.823 0-12.166-5.885-10.995-15.44 1.08-8.778 7.78-15.135 15.13-15.135 5.4 0 8.08 4.186 8.22 4.6h.099l.44-3.617h5.826l-3.518 28.665zm-10.882-23.344c-5.203 0-8.472 4.856-9 9.145-.596 4.852 2.257 8.828 6.79 8.828 4.392 0 8.195-3.717 8.845-9.035.728-5.945-2.86-8.938-6.635-8.938zm31.627-5.321h5.87l-.302 2.479c1.183-1.086 3.671-3.462 7.68-3.462 2.29 0 5.643 1.086 7.484 3.977 2.044 3.15 1.456 7.957 1.184 10.178l-1.902 15.492h-6.348l1.734-14.15c.295-2.376 1.13-9.194-4.215-9.194-1.144 0-3.273.62-4.653 2.531-1.366 1.755-1.735 4.748-2.028 7.18l-1.675 13.633h-6.346l3.517-28.664zm32.561 17.407c.059 1.858 2.046 5.887 6.583 5.887 2.817 0 5.076-1.29 6.558-3.666h6.685c-2.16 5.164-7.813 9.963-14.013 9.963-7.879 0-13.152-6.817-12.125-15.18.997-8.108 7.681-15.549 15.844-15.549 8.404 0 12.737 7.852 11.85 15.087-.163 1.34-.5 2.527-.808 3.458h-20.574zm15.142-5.527c-.15-4.597-3.18-6.716-6.332-6.716-2.34 0-6.473 1.395-8.32 6.716h14.652zm-121.902 16.77h6.345l3.519-28.665h-6.348zm11.965-36.323c-.288 2.322-2.396 4.197-4.71 4.197-2.318 0-3.965-1.875-3.682-4.197.284-2.317 2.394-4.195 4.71-4.195s3.968 1.878 3.682 4.195zm46.621 36.323h6.353l3.517-28.665h-6.345z"/>
        </g>
    </switch>
</svg>
